<svg xmlns="http://www.w3.org/2000/svg" xmlns:xlink="http://www.w3.org/1999/xlink" viewBox="0 0 344.2 66.08"><defs><style>.cls-1{fill:url(#linear-gradient);}.cls-2{fill:url(#linear-gradient-2);}.cls-3{fill:url(#linear-gradient-3);}.cls-4{fill:url(#linear-gradient-4);}.cls-5{fill:url(#linear-gradient-5);}.cls-6{fill:url(#linear-gradient-6);}.cls-7{fill:url(#linear-gradient-7);}.cls-8{fill:url(#linear-gradient-8);}.cls-9{fill:url(#linear-gradient-9);}</style><linearGradient id="linear-gradient" x1="-2.72" y1="44.61" x2="35.62" y2="6.28" gradientUnits="userSpaceOnUse"><stop offset="0" stop-color="#7f00ff"/><stop offset="1" stop-color="#e100ff"/></linearGradient><linearGradient id="linear-gradient-2" x1="26.53" y1="56.4" x2="66.91" y2="16.02" xlink:href="#linear-gradient"/><linearGradient id="linear-gradient-3" x1="80.4" y1="45.78" x2="107.8" y2="18.38" xlink:href="#linear-gradient"/><linearGradient id="linear-gradient-4" x1="111.2" y1="44.08" x2="140.3" y2="14.99" xlink:href="#linear-gradient"/><linearGradient id="linear-gradient-5" x1="144.83" y1="41.28" x2="170.43" y2="15.68" xlink:href="#linear-gradient"/><linearGradient id="linear-gradient-6" x1="169.56" y1="47.21" x2="198.99" y2="17.78" xlink:href="#linear-gradient"/><linearGradient id="linear-gradient-7" x1="195.2" y1="44.08" x2="224.3" y2="14.99" xlink:href="#linear-gradient"/><linearGradient id="linear-gradient-8" x1="230.55" y1="54.62" x2="275.59" y2="9.57" xlink:href="#linear-gradient"/><linearGradient id="linear-gradient-9" x1="293.45" y1="55.33" x2="336.48" y2="12.3" xlink:href="#linear-gradient"/></defs><title>Asset 6</title><g id="Layer_2" data-name="Layer 2"><g id="Layer_1-2" data-name="Layer 1"><path class="cls-1" d="M.2,47.53V36.69A20.74,20.74,0,0,0,6.61,40.4a20.44,20.44,0,0,0,7,1.24,15.88,15.88,0,0,0,3.6-.37,8.52,8.52,0,0,0,2.58-1,4.49,4.49,0,0,0,1.54-1.56,3.83,3.83,0,0,0,.51-1.94A4.26,4.26,0,0,0,21,34.18a9.06,9.06,0,0,0-2.22-2.06,23.75,23.75,0,0,0-3.34-1.83q-1.93-.88-4.17-1.8A21.25,21.25,0,0,1,2.8,22.7,12.62,12.62,0,0,1,0,14.43,13.23,13.23,0,0,1,1.52,7.91,13,13,0,0,1,5.67,3.42,18.62,18.62,0,0,1,11.76.83,31.37,31.37,0,0,1,19.07,0,43.38,43.38,0,0,1,25.8.46a26.33,26.33,0,0,1,5.4,1.4V12a16.62,16.62,0,0,0-2.66-1.49,20.44,20.44,0,0,0-3-1.06,22.06,22.06,0,0,0-5.9-.83A14.69,14.69,0,0,0,16.3,9a8.74,8.74,0,0,0-2.58,1A4.9,4.9,0,0,0,12.1,11.5a3.61,3.61,0,0,0-.58,2,3.82,3.82,0,0,0,.64,2.18A7.21,7.21,0,0,0,14,17.53a19.57,19.57,0,0,0,2.88,1.7c1.13.55,2.41,1.12,3.83,1.71a41.11,41.11,0,0,1,5.23,2.59,18.59,18.59,0,0,1,4,3.1,12.22,12.22,0,0,1,2.54,3.95,14.08,14.08,0,0,1,.88,5.16,13.94,13.94,0,0,1-1.54,6.83A12.56,12.56,0,0,1,27.61,47a18.19,18.19,0,0,1-6.15,2.46,35.92,35.92,0,0,1-7.4.74,41.37,41.37,0,0,1-7.61-.67A23.17,23.17,0,0,1,.2,47.53Z"/><path class="cls-2" d="M47.34,46.08H47.2v20h-11v-51h11v5h.14a12.87,12.87,0,0,1,11.39-6.2q6.89,0,10.65,4.73t3.75,12.86q0,8.87-4.38,14.23A14.27,14.27,0,0,1,57.1,51.07,11,11,0,0,1,47.34,46.08ZM46.2,31.19V34a8.86,8.86,0,0,0,1.92,5.91,6.21,6.21,0,0,0,5,2.29,6.64,6.64,0,0,0,5.73-2.85c1.35-1.9,2-4.6,2-8.08Q60.9,22,53.72,22a6.74,6.74,0,0,0-5.41,2.51A10,10,0,0,0,46.2,31.19Z"/><path class="cls-3" d="M93.94,50.47q-8.76,0-13.76-4.91t-5-13.31q0-8.68,5.2-13.59t14-4.9q8.72,0,13.67,4.9t5,13q0,8.72-5.11,13.78T93.94,50.47ZM94.21,22a7.23,7.23,0,0,0-5.95,2.63q-2.12,2.64-2.12,7.45,0,10.08,8.14,10.08,7.75,0,7.76-10.35Q102,22,94.21,22Z"/><path class="cls-4" d="M140.2,24.08a10,10,0,0,0-4.53-1,6.75,6.75,0,0,0-5.49,2.39,9.85,9.85,0,0,0-2,6.49v18.1h-11v-35h11v6h.14q2.55-6.57,9.2-6.57a7.46,7.46,0,0,1,2.66.38Z"/><path class="cls-5" d="M167.2,49.29c-1.62.86-4.08,1.29-7.35,1.29q-11.65,0-11.65-12.09V23.08h-6v-8h6V7.53l11-3.08V15.08h8v8h-8V37.3c0,3.66,1.48,5.49,4.42,5.49a7.45,7.45,0,0,0,3.58-1Z"/><path class="cls-6" d="M171.2,48.86V40a23.52,23.52,0,0,0,5.37,2.42,17.8,17.8,0,0,0,5.06.79,10.89,10.89,0,0,0,4.58-.79A2.56,2.56,0,0,0,187.88,40a2.4,2.4,0,0,0-.85-1.76,7.18,7.18,0,0,0-1.86-1.13,23.21,23.21,0,0,0-2.61-.93c-.94-.27-1.85-.59-2.72-.93a26,26,0,0,1-3.72-1.71,10.93,10.93,0,0,1-2.69-2.12,8.49,8.49,0,0,1-1.66-2.8,11.14,11.14,0,0,1-.57-3.76,9.61,9.61,0,0,1,1.3-5.11A10.52,10.52,0,0,1,176,16.21a15.67,15.67,0,0,1,4.94-2,25.47,25.47,0,0,1,5.78-.64,32.32,32.32,0,0,1,4.77.36A35.15,35.15,0,0,1,196.2,15v8.43a17,17,0,0,0-4.43-1.81,18.46,18.46,0,0,0-4.65-.61,10.82,10.82,0,0,0-2,.19,6.42,6.42,0,0,0-1.67.56,3,3,0,0,0-1.14.93,2.12,2.12,0,0,0-.42,1.29,2.41,2.41,0,0,0,.62,1.66,5.41,5.41,0,0,0,1.63,1.19,15.78,15.78,0,0,0,2.22.9c.82.26,1.63.53,2.44.81a31.61,31.61,0,0,1,3.93,1.66,12.71,12.71,0,0,1,3,2.1,8.28,8.28,0,0,1,1.93,2.84,10,10,0,0,1,.67,3.86A10.06,10.06,0,0,1,197,44.35,10.86,10.86,0,0,1,193.35,48a16.48,16.48,0,0,1-5.21,2,29.3,29.3,0,0,1-6.13.63A31.56,31.56,0,0,1,171.2,48.86Z"/><path class="cls-7" d="M224.2,24.08a10,10,0,0,0-4.53-1,6.75,6.75,0,0,0-5.49,2.39,9.85,9.85,0,0,0-2,6.49v18.1h-11v-35h11v6h.14q2.55-6.57,9.2-6.57a7.46,7.46,0,0,1,2.66.38Z"/><path class="cls-8" d="M272.18,8.35Q265.61,6,257.71,9.68q-7.66,3.57-10.4,9.82c-4.22-1.33-8.84-.85-13.88,1.5q-8,3.75-10.66,10.38t1,14.51q3.55,7.62,10.17,10t14.54-1.37c5.09-2.37,8.49-5.64,10.25-9.8q6.4,2,14-1.52,8.06-3.75,10.55-10.5T282.15,18Q278.75,10.69,272.18,8.35ZM245.32,46.83q-7.37,3.45-11.63-5.7-2-4.37-1.23-7.65a7.2,7.2,0,0,1,4.28-4.89c4.51-2.11,8.12-.5,10.85,4.79.16.4.31.79.5,1.19s.28.55.42.83Q251.89,43.77,245.32,46.83Zm24.29-11.32q-6.89,3.21-11.05-4.53c-.21-.55-.43-1.09-.69-1.65-.15-.32-.32-.62-.48-.93a10.58,10.58,0,0,1-.65-6.24,7.22,7.22,0,0,1,4.28-4.9q7.1-3.3,11.24,5.59Q276.64,32.23,269.61,35.51Z"/><path class="cls-9" d="M344.2,50.08h-11v-20q0-7.62-5.78-7.62a5.38,5.38,0,0,0-4.49,2.29,9.23,9.23,0,0,0-1.73,5.71V50.08h-10V29.92q0-7.43-5.7-7.42a5.52,5.52,0,0,0-4.58,2.19,9.33,9.33,0,0,0-1.72,5.94V50.08h-11v-35h11v5h.14a13.13,13.13,0,0,1,4.72-4.64,12.92,12.92,0,0,1,6.65-1.78q7.46,0,10.2,6.63a13,13,0,0,1,11.82-6.63q11.47,0,11.47,14.3Z"/></g></g></svg>